<?xml version="1.0" encoding="UTF-8" standalone="no"?>
<!-- Created with Inkscape (http://www.inkscape.org/) -->

<svg
   xmlns:dc="http://purl.org/dc/elements/1.1/"
   xmlns:cc="http://creativecommons.org/ns#"
   xmlns:rdf="http://www.w3.org/1999/02/22-rdf-syntax-ns#"
   xmlns:svg="http://www.w3.org/2000/svg"
   xmlns="http://www.w3.org/2000/svg"
   xmlns:sodipodi="http://sodipodi.sourceforge.net/DTD/sodipodi-0.dtd"
   xmlns:inkscape="http://www.inkscape.org/namespaces/inkscape"
   width="52.478012mm"
   height="60.762302mm"
   viewBox="0 0 52.478012 60.762302"
   version="1.1"
   id="svg8"
   inkscape:version="0.92.4 (5da689c313, 2019-01-14)"
   sodipodi:docname="logo_puntro_sales.svg">
  <defs
     id="defs2" />
  <sodipodi:namedview
     id="base"
     pagecolor="#ffffff"
     bordercolor="#666666"
     borderopacity="1.0"
     inkscape:pageopacity="0.0"
     inkscape:pageshadow="2"
     inkscape:zoom="2.8"
     inkscape:cx="101.68419"
     inkscape:cy="103.85935"
     inkscape:document-units="mm"
     inkscape:current-layer="layer1"
     showgrid="false"
     fit-margin-top="0"
     fit-margin-left="0"
     fit-margin-right="0"
     fit-margin-bottom="0"
     inkscape:window-width="1920"
     inkscape:window-height="991"
     inkscape:window-x="-9"
     inkscape:window-y="-9"
     inkscape:window-maximized="1" />
  <metadata
     id="metadata5">
    <rdf:RDF>
      <cc:Work
         rdf:about="">
        <dc:format>image/svg+xml</dc:format>
        <dc:type
           rdf:resource="http://purl.org/dc/dcmitype/StillImage" />
        <dc:title></dc:title>
      </cc:Work>
    </rdf:RDF>
  </metadata>
  <g
     inkscape:label="Layer 1"
     inkscape:groupmode="layer"
     id="layer1"
     transform="translate(-77.091167,-120.9292)">
    <path
       style="stroke-width:0.09335762"
       d="m 111.05859,180.83562 c -3.22368,-2.82745 -6.43613,-6.86168 -8.81376,-11.06846 -5.46463,-9.66857 -8.109292,-22.46002 -7.861579,-38.0241 0.05804,-3.64683 0.467956,-10.88238 0.61261,-10.81337 0.04887,0.0233 0.386796,0.46377 0.750965,0.97879 3.721095,5.26248 8.191624,9.96996 13.902404,14.63929 l 1.58474,1.29574 -0.18795,2.47195 c -0.27358,3.59733 -0.1635,6.3386 0.3911,9.7426 0.52579,3.22715 1.33025,6.05916 2.6265,9.24629 3.6623,9.28822 9.53775,15.47252 15.50556,21.75851 -0.0352,0.0289 -17.85747,0.17036 -18.01754,0.15659 -0.0338,-0.003 -0.25565,-0.17562 -0.49303,-0.38382 z"
       id="path3742"
       inkscape:connector-curvature="0"
       sodipodi:nodetypes="ccscccccsccscc" />
    <path
       style="stroke-width:0.09449405"
       d="m 77.091196,181.66375 c 0.008,-0.0929 1.486555,-2.88534 2.937613,-5.54808 2.550286,-4.67987 4.006909,-7.68153 5.308493,-10.93923 4.386682,-10.97929 6.378063,-24.0246 6.276998,-41.11992 -0.0069,-1.16599 0.0028,-2.1329 0.02158,-2.14869 0.01875,-0.0158 0.466361,1.72309 0.99467,3.86418 l 0.96056,3.89288 -0.03957,2.2254 c -0.192897,10.84958 0.504657,18.32422 2.351649,25.19913 0.607725,2.26208 1.529971,5.03107 2.785077,8.36199 l 1.060142,2.81353 -2.386648,6.27216 c -1.312656,3.44969 -2.684681,6.83028 -2.748881,6.88249 -6.183446,0.12265 -10.723394,-0.14518 -17.215256,0.26521 -0.170764,0.0143 -0.308656,0.005 -0.306429,-0.0211 z"
       id="path3746"
       inkscape:connector-curvature="0"
       sodipodi:nodetypes="cssccscssccscccc" />
    <path
       style="stroke-width:0.35714287;fill:#37c8ab"
       d="m 1.9984514,225.4229 c 1.2361993,-2.33013 5.0968889,-9.54017 8.5793096,-16.02231 10.706196,-19.92841 16.018488,-30.92657 20.873217,-43.21429 11.737817,-29.7094 18.97801,-64.2575 21.780149,-103.928572 0.952929,-13.491061 1.265807,-21.9081 1.505804,-40.509293 0.144371,-11.189702 0.352621,-17.6841902 0.549953,-17.1507542 0.174679,0.4721969 1.822786,6.8888792 3.662461,14.2592932 l 3.344864,13.400754 0.17119,23.75 c 0.09415,13.0625 0.348564,26 0.565357,28.75 2.668835,33.854032 6.492321,50.785792 19.098103,84.573182 1.891133,5.06882 3.438422,9.39082 3.438422,9.60444 0,0.83054 -16.147675,42.70805 -18.445304,47.8362 l -0.902278,2.01382 -28.986925,0.21638 c -15.942806,0.11901 -30.8983051,0.31568 -33.2344401,0.43706 l -4.24751793,0.22068 z"
       id="path3750"
       inkscape:connector-curvature="0"
       transform="matrix(0.26458333,0,0,0.26458333,77.091167,120.9292)" />
  </g>
</svg>
