<?xml version="1.0" encoding="UTF-8" standalone="no"?>
<!-- Created with Inkscape (http://www.inkscape.org/) -->

<svg
   width="60mm"
   height="60mm"
   viewBox="0 0 60 60"
   version="1.1"
   id="svg8"
   inkscape:version="1.3 (0e150ed6c4, 2023-07-21)"
   sodipodi:docname="logo_puntro_sales.svg"
   inkscape:export-filename="..\..\..\..\Pictures\logo_puntro_sales.png"
   inkscape:export-xdpi="216.74667"
   inkscape:export-ydpi="216.74667"
   xmlns:inkscape="http://www.inkscape.org/namespaces/inkscape"
   xmlns:sodipodi="http://sodipodi.sourceforge.net/DTD/sodipodi-0.dtd"
   xmlns="http://www.w3.org/2000/svg"
   xmlns:svg="http://www.w3.org/2000/svg"
   xmlns:rdf="http://www.w3.org/1999/02/22-rdf-syntax-ns#"
   xmlns:cc="http://creativecommons.org/ns#"
   xmlns:dc="http://purl.org/dc/elements/1.1/">
  <defs
     id="defs2" />
  <sodipodi:namedview
     id="base"
     pagecolor="#ffffff"
     bordercolor="#666666"
     borderopacity="1.0"
     inkscape:pageopacity="0.0"
     inkscape:pageshadow="2"
     inkscape:zoom="2.8"
     inkscape:cx="56.428571"
     inkscape:cy="127.67857"
     inkscape:document-units="mm"
     inkscape:current-layer="layer1"
     showgrid="false"
     fit-margin-top="0"
     fit-margin-left="0"
     fit-margin-right="0"
     fit-margin-bottom="0"
     inkscape:window-width="1920"
     inkscape:window-height="1009"
     inkscape:window-x="-8"
     inkscape:window-y="-8"
     inkscape:window-maximized="1"
     inkscape:showpageshadow="2"
     inkscape:pagecheckerboard="0"
     inkscape:deskcolor="#d1d1d1" />
  <metadata
     id="metadata5">
    <rdf:RDF>
      <cc:Work
         rdf:about="">
        <dc:format>image/svg+xml</dc:format>
        <dc:type
           rdf:resource="http://purl.org/dc/dcmitype/StillImage" />
      </cc:Work>
    </rdf:RDF>
  </metadata>
  <g
     inkscape:label="Layer 1"
     inkscape:groupmode="layer"
     id="layer1"
     transform="translate(-77.091167,-120.9292)">
    <path
       style="stroke-width:0.0691378"
       d="m 114.7025,172.91299 c -2.38734,-2.09392 -4.76638,-5.08154 -6.52719,-8.19696 -4.04693,-7.16024 -6.00549,-16.63318 -5.82205,-28.15945 0.0429,-2.70074 0.34655,-8.05916 0.45369,-8.00804 0.0361,0.0172 0.28644,0.34345 0.55614,0.72485 2.75573,3.89723 6.06647,7.38344 10.2957,10.84141 l 1.17361,0.95957 -0.1392,1.83065 c -0.2026,2.66408 -0.12108,4.69418 0.28963,7.21507 0.38938,2.38992 0.98516,4.48723 1.94512,6.84751 2.71218,6.87857 7.06336,11.45846 11.48291,16.11368 -0.026,0.0214 -13.22467,0.12616 -13.34321,0.11596 -0.0251,-0.002 -0.18933,-0.13005 -0.36512,-0.28424 z"
       id="path3742"
       inkscape:connector-curvature="0"
       sodipodi:nodetypes="ccscccccsccscc" />
    <path
       style="stroke-width:0.0699794"
       d="m 89.547305,173.52627 c 0.006,-0.0687 1.100896,-2.13678 2.175505,-4.10872 1.888662,-3.46577 2.967391,-5.68871 3.931303,-8.10127 3.24864,-8.13091 4.723397,-17.79185 4.648557,-30.45212 -0.005,-0.8635 0.002,-1.57956 0.016,-1.59126 0.0139,-0.0117 0.34537,1.27608 0.73662,2.86171 l 0.71135,2.88294 -0.0293,1.64806 c -0.14285,8.03485 0.37374,13.57034 1.74158,18.66169 0.45005,1.67523 1.13304,3.72585 2.06254,6.19262 l 0.78511,2.08362 -1.76747,4.64497 c -0.97212,2.55472 -1.98821,5.05828 -2.03576,5.09695 -4.579269,0.0908 -7.941413,-0.10752 -12.749082,0.19641 -0.126463,0.0106 -0.228582,0.004 -0.226933,-0.0156 z"
       id="path3746"
       inkscape:connector-curvature="0"
       sodipodi:nodetypes="cssccscssccscccc" />
    <path
       style="fill:#37c8ab;stroke-width:0.0699794"
       d="m 89.938864,172.71801 c 0.242224,-0.45656 0.998695,-1.86931 1.681049,-3.13944 2.097795,-3.90481 3.138696,-6.05981 4.089942,-8.4675 2.299933,-5.82133 3.718593,-12.59075 4.267651,-20.36399 0.186724,-2.64347 0.248034,-4.29271 0.295054,-7.93748 0.0283,-2.19253 0.069,-3.46508 0.10776,-3.36055 0.0342,0.0925 0.35716,1.34982 0.71762,2.794 l 0.6554,2.62576 0.0335,4.65363 c 0.0185,2.55949 0.0682,5.0945 0.11079,5.63334 0.52292,6.63343 1.27211,9.95107 3.74212,16.57146 0.37056,0.99319 0.67373,1.84005 0.67373,1.88191 0,0.16274 -3.16401,8.3683 -3.61422,9.37312 l -0.1768,0.3946 -5.679752,0.0424 c -3.123867,0.0234 -6.054279,0.0618 -6.512027,0.0857 l -0.832268,0.0433 z"
       id="path3750"
       inkscape:connector-curvature="0" />
  </g>
</svg>
